<?xml version="1.0" encoding="utf-8"?>
<!-- Generator: Adobe Illustrator 25.0.0, SVG Export Plug-In . SVG Version: 6.00 Build 0)  -->
<svg version="1.1" id="图层_1" xmlns="http://www.w3.org/2000/svg" xmlns:xlink="http://www.w3.org/1999/xlink" x="0px" y="0px"
	 viewBox="0 0 566.93 566.93" style="enable-background:new 0 0 566.93 566.93;" xml:space="preserve">
<style type="text/css">
	.st0{fill:url(#SVGID_1_);}
	.st1{fill:#F0F2F3;}
	.st2{fill:#D6EEF1;}
	.st3{fill:#B5E3E8;}
</style>
<linearGradient id="SVGID_1_" gradientUnits="userSpaceOnUse" x1="74.6447" y1="491.7202" x2="514.3726" y2="53.1807">
	<stop  offset="0.1601" style="stop-color:#2A63A4"/>
	<stop  offset="0.4125" style="stop-color:#417CB6"/>
	<stop  offset="0.9923" style="stop-color:#5ABCCB"/>
</linearGradient>
<path class="st0" d="M395.22,525.01H171.71c-71.68,0-129.79-58.11-129.79-129.79V171.71c0-71.68,58.11-129.79,129.79-129.79h223.51
	c71.68,0,129.79,58.11,129.79,129.79v223.51C525.01,466.9,466.9,525.01,395.22,525.01z"/>
<g>
	<path class="st1" d="M86.1,214.33c0,0,114.36-28.39,122.6,33.88c8.24,62.27,19.69,76,46.25,71.88c0,0-8.7,31.14-49,32.98
		l34.8,72.35c0,0,71.43-27.02,63.19-125.92c0,0,54.49,19.69,89.29-45.33s20.41-69.6,87.59-85.17c0,0-72.48-45.08-133.38-19.79
		s-84.71,74.74-103.49,47.73s-49.45-65.94-96.62-10.99C147.35,185.94,126.97,185.94,86.1,214.33z"/>
	<path class="st2" d="M123.66,208.56c0,0,56.66-29.49,88.25,9.89s2.29,65.94,50.37,97.07c0,0,3.66,64.56-23.35,70.97l-32.97-33.43
		c0,0,38.92-0.47,49-32.98c0,0-40.3,21.07-46.25-71.88C208.7,248.22,208.95,200.96,123.66,208.56z"/>
	<path class="st3" d="M265.48,229.9c0,0,35.72,30.68,38.46,69.6c0,0,55.4,18.31,89.29-45.33s21.33-70.52,87.59-85.17
		c0,0-80.72-12.36-110.48,22.89S293.42,239.98,265.48,229.9z"/>
</g>
</svg>
